<?xml version="1.0" encoding="UTF-8"?>
<svg id="b" data-name="Layer 2" xmlns="http://www.w3.org/2000/svg" viewBox="0 0 543.177 583.876">
  <g id="c" data-name="ëÎÓÈ 3">
    <g>
      <path d="M433.379,332.413c.18.179.364.353.522.561,14.413,18.979,30.094,29.279,46.607,30.618,22.719,1.833,39.864-14.163,40.034-14.325.041-.039.089-.064.131-.101.062-.056.114-.12.18-.173,22.486-18.439,23.349-46.256,21.861-61.197-1.915-19.227-10.877-42.722-23.413-54.316-4.185,22.956-14.8,35.273-19.552,39.789,3.132,5.171,5.014,12.027,3.866,21.041-.354,2.777-2.722,4.806-5.449,4.806-.231,0-.466-.015-.702-.045-3.014-.384-5.145-3.139-4.761-6.151,2.729-21.415-19.328-24.768-20.267-24.9-3.009-.423-5.104-3.205-4.681-6.212.423-3.008,3.202-5.109,6.212-4.68.34.048,8.411,1.228,16.024,6.227.795.522,1.601,1.099,2.405,1.728,1.472-1.429,3.828-3.998,6.328-7.858,3.799-5.865,8.714-15.999,10.556-30.964.09-.733.322-1.412.662-2.018-.011-.186-.023-.371-.015-.559,1.572-35.224-5.43-61.198-20.811-77.201-15.281-15.898-33.958-16.049-34.285-16.049-.011,0-.02,0-.031,0-.699,0-1.369-.146-1.996-.39-.434.11-.885.175-1.353.175-.231.006-.467-.002-.698-.002-22.631,0-39.673,5.721-50.736,17.013,3.391,3.511,6.286,8.324,8.061,14.914.79,2.933-.946,5.951-3.88,6.742-.479.129-.96.191-1.434.191-2.426,0-4.646-1.617-5.308-4.07-5.616-20.843-27.292-15.559-28.214-15.325-2.941.75-5.938-1.023-6.691-3.966-.752-2.943,1.024-5.938,3.967-6.691.333-.085,8.247-2.062,17.189-.332,2.272.439,4.722,1.139,7.179,2.22,13.175-14.385,33.285-21.694,59.866-21.694.241,0,.482,0,.725.002.414.002.816.054,1.204.143,3.949-4.25,14.69-19.826-2.693-50.583-17.901-31.672-48.108-30.771-56.779-29.784-.374,2.595-1.027,5.563-2.167,8.587-2.845,7.543-9.151,16.661-22.992,19.421,1.379,6.101.925,13.475-3.464,21.921-.979,1.885-2.897,2.964-4.885,2.964-.854,0-1.721-.2-2.531-.621-2.695-1.401-3.745-4.722-2.344-7.417,9.956-19.155-9.587-29.918-10.424-30.368-2.677-1.435-3.683-4.769-2.247-7.446,1.435-2.676,4.768-3.683,7.446-2.247.303.162,7.469,4.057,12.889,11.377.34.459.676.937,1.007,1.433,20.729-2.446,19.23-24.194,19.154-25.13-.029-.359-.02-.712.018-1.057-3.467-7.372-14.166-21.943-45.843-28.518-42.205-8.764-55.466,15.691-56.009,16.736-.12.231-.138.292-.268.473-.483.912-5.983,12.219-.15,41.894,1.817,5.026,4.65,8.453,8.664,10.412,9.078,4.43,21.163.043,21.284-.001,2.845-1.054,6.009.39,7.07,3.229,1.06,2.839-.368,5.999-3.204,7.069-.433.163-7.212,2.664-15.563,2.664-4.57,0-9.61-.748-14.34-3.039-.828-.401-1.624-.842-2.394-1.315-.762,6.339-2.423,13.471-4.141,20.837-1.097,4.705-2.212,9.493-3.011,13.863,1.71-.98,3.566-1.848,5.583-2.55,12.723-4.429,27.74-1.108,44.63,9.87,2.547,1.655,3.27,5.062,1.614,7.609-1.654,2.547-5.061,3.27-7.608,1.614-13.845-8.999-25.593-11.94-34.929-8.735-9.904,3.399-14.605,13.076-15.788,15.891.081,8.6,1.11,17.13,2.207,26.14,1.029,8.449,2.08,17.115,2.384,26.271,7.625-5.315,18.361-8.794,30.833-3.938,2.831,1.102,4.232,4.291,3.13,7.121-1.102,2.831-4.294,4.229-7.12,3.13-6.969-2.713-13.695-1.925-19.995,2.345-4.892,3.315-7.701,7.496-7.728,7.537-.316.483-.7.892-1.124,1.239-.615,1.538-1.336,3.201-2.143,5.05-5.674,13.014-15.172,34.794-8.605,65.684,1.66,7.807,4.149,15.037,6.556,22.029,5.21,15.136,10.132,29.431,6.13,46.91-1.946,8.499-1.099,15.941-.202,23.82.81,7.118,1.64,14.473.115,22.24-.034.345-.327,3.142-1.238,7.321-2.751,22.033,3.81,41.099,7.653,44.573,3.793,3.425,1.348,7.783-.617,11.285-3.467,6.177-9.918,17.675-5.907,33.284.319,1.242.588,2.486.824,3.727.647.813,1.075,1.815,1.175,2.926.206,2.301.424,4.422.651,6.394.982-1.345,2.091-2.565,3.341-3.637,7.602-6.522,19.503-7.514,35.38-2.951.212.061.415.137.614.22,4.406-5.33,11.322-9.883,22.22-10.791,3.039-.252,5.685,1.999,5.937,5.025.252,3.026-1.998,5.685-5.025,5.937-21.513,1.791-20.197,24.064-20.131,25.011.213,3.03-2.071,5.659-5.1,5.872-.132.01-.262.014-.392.014-2.862,0-5.277-2.216-5.481-5.114-.024-.331-.505-7.943,2.441-16.114-10.958-2.874-18.995-2.458-23.3,1.239-5.181,4.446-5.275,13.601-4.411,20.618,7.893,33.37,36.901,49.197,61.469,52.877,29.816,4.467,57.694-6.564,72.193-28.237.037-.103.07-.206.113-.308,8.413-19.8-11.548-28.665-12.401-29.032-2.79-1.201-4.078-4.437-2.877-7.227,1.202-2.79,4.435-4.075,7.227-2.877.312.135,7.705,3.367,13.613,10.16,4.372,5.027,8.57,12.694,7.384,22.954,18.262-1.579,32.148-7.656,41.303-18.139,13.061-14.953,17.588-39.262,13.843-74.315-.417-.491-.763-1.053-.993-1.695-9.635-26.875-26.527-43.216-50.206-48.566-17.79-4.021-32.751-.148-32.9-.11-.642.171-1.287.214-1.913.156-.531.355-1.13.627-1.788.782-.424.1-.849.147-1.267.147-2.493,0-4.751-1.707-5.349-4.239-3.246-13.768-10.961-23.519-22.931-28.981-8.908-4.065-17.025-4.179-17.104-4.179-1.309,0-2.509-.459-3.453-1.222-3.817,3.838-9.226,7.054-16.888,8.67-.383.08-.765.119-1.141.119-2.545,0-4.83-1.776-5.376-4.366-.627-2.973,1.275-5.89,4.247-6.517,20.597-4.343,17.304-25,16.86-27.342-.564-2.976,1.385-5.858,4.358-6.434,2.979-.575,5.852,1.353,6.437,4.325.066.337,1.602,8.347-.62,17.181-.384,1.526-.894,3.127-1.561,4.748,3.832.35,11.037,1.464,18.806,5.009,9.556,4.36,21.669,13.25,27.561,31.117,4.864-1.029,19.486-3.426,36.445.407,18.658,4.216,43.615,17.003,57.451,53.759,7.905-2.813,14.628-9.121,20.018-18.835,10.791-19.445,13.252-47.914,9.43-66.034-7.52,5.159-20.729,12.156-37.091,12.156-1.469,0-2.959-.057-4.477-.175-19.052-1.495-36.771-12.423-52.706-32.481-3.534,3.549-8.443,6.593-15.259,8.441-.482.13-.967.192-1.442.192-2.423,0-4.642-1.611-5.306-4.062-.795-2.932.937-5.953,3.869-6.748,20.836-5.649,15.518-27.317,15.282-28.237-.757-2.941,1.015-5.94,3.956-6.696,2.94-.758,5.94,1.015,6.696,3.956.086.332,2.074,8.242.359,17.188-.383,1.998-.968,4.134-1.835,6.292ZM371.65,556.544c-1.05,1.636-2.823,2.529-4.633,2.529-1.018,0-2.047-.282-2.967-.873-.288-.185-7.128-4.629-11.957-12.352-4.691-7.502-8.403-19.459.553-33.817,1.607-2.578,4.998-3.362,7.578-1.756,2.577,1.608,3.363,5.001,1.756,7.578-11.426,18.315,7.214,30.577,8.014,31.091,2.556,1.641,3.298,5.043,1.656,7.6ZM332.173,418.82c1.735,2.463,3.384,5.449,4.483,8.9,5.633-.462,19.965-1.145,35.645,1.966,25.607,5.079,42.965,18.003,50.458,37.474,5.753-4.114,13.837-6.79,24.914-4.552,2.977.601,4.903,3.503,4.303,6.48-.601,2.978-3.509,4.901-6.48,4.303-21.146-4.276-26.103,17.482-26.302,18.41-.556,2.579-2.836,4.343-5.371,4.343-.385,0-.773-.04-1.164-.124-2.97-.641-4.858-3.566-4.219-6.535.066-.307,1.557-7.007,6.056-13.685-.433-.53-.785-1.138-1.001-1.832-11.81-37.85-63.738-36.195-75.585-35.305-.347,4.26-1.67,8.929-4.434,13.955-1.002,1.821-2.883,2.851-4.824,2.851-.896,0-1.805-.22-2.645-.682-2.662-1.464-3.633-4.809-2.169-7.47,10.404-18.916-8.88-30.136-9.706-30.604-2.643-1.498-3.569-4.854-2.071-7.497,1.498-2.643,4.858-3.569,7.497-2.071.299.169,7.371,4.23,12.617,11.677ZM414.16,261.779c-.434.349-10.783,8.579-26.252,11.187-2.818.475-5.918.777-9.238.777-12.475,0-28.084-4.275-43.802-19.663-.012.018-.024.034-.036.053-6.333,9.998-7.701,20.562-7.715,20.667-.345,2.785-2.716,4.824-5.451,4.824-.225,0-.454-.014-.683-.042-3.015-.373-5.155-3.12-4.781-6.135.065-.531,1.699-13.14,9.338-25.2,7.285-11.503,21.435-24.612,47.413-21.729,3.019.334,5.195,3.053,4.861,6.072-.335,3.018-3.042,5.2-6.072,4.86-12.131-1.343-22.096,1.414-29.766,8.194,32.777,32.72,63.944,8.633,65.295,7.56,2.37-1.887,5.83-1.504,7.724.861,1.894,2.365,1.525,5.811-.834,7.714ZM434.606,228.224c-.119.008-.239.011-.356.011-2.878,0-5.297-2.236-5.483-5.148-.022-.342-.499-8.485,2.856-16.953,3.259-8.226,10.685-18.304,27.559-19.605,3.032-.228,5.674,2.033,5.906,5.061.233,3.028-2.032,5.673-5.061,5.907-21.523,1.66-20.345,23.939-20.284,24.887.194,3.031-2.105,5.646-5.137,5.84Z"/>
      <path d="M261.06,427.22c-9.138,14.178-22.263,21.783-38.426,22.275-.01,4.852-1.265,10.289-4.529,16.222-1.001,1.821-2.883,2.851-4.824,2.851-.896,0-1.805-.22-2.645-.682-2.662-1.464-3.633-4.809-2.169-7.47,10.144-18.444-7.661-29.424-9.725-30.614-2.623-1.515-3.538-4.871-2.034-7.5,1.504-2.631,4.843-3.553,7.478-2.059.298.169,7.371,4.23,12.617,11.677,1.34,1.903,2.627,4.12,3.652,6.62,14.802.142,26.132-6.98,33.701-21.231,3.579-6.738,5.536-13.614,6.565-18.343.299-2.257.65-4.492,1.109-6.666,1.317-6.236.595-12.584-.17-19.304-.917-8.057-1.956-17.188.409-27.519,3.3-14.415-.921-26.677-5.808-40.874-2.515-7.305-5.115-14.857-6.915-23.323-7.301-34.34,3.487-59.078,9.282-72.368,1.503-3.447,3.207-7.353,3.25-8.652.401-12.023-.983-23.387-2.322-34.376-.663-5.443-1.333-10.997-1.779-16.597-.042-.153-.097-.298-.126-.457-5.934-32.528-16.676-45.504-24.642-50.663-7.842-5.078-14.333-3.564-14.604-3.496-.618.171-1.237.223-1.84.18-3.452,1.471-7.5,2.396-12.262,2.396-1.693,0-3.474-.116-5.348-.363-3.012-.396-5.131-3.16-4.734-6.171.396-3.011,3.155-5.133,6.171-4.734,20.864,2.748,24.629-17.828,24.989-20.183.458-2.995,3.244-5.07,6.249-4.62,2.996.446,5.069,3.22,4.634,6.218-.049.34-1.264,8.405-6.295,15.998-.249.375-.512.754-.784,1.132,2.89.777,6.064,2.058,9.345,4.116,10.311,6.469,18.385,18.268,24.128,35.191.161-7.2,2.216-16.08,4.408-25.48,2.489-10.669,5.309-22.762,3.932-28.738-.444-1.926-.836-3.778-1.201-5.588-.086-.253-.177-.502-.259-.76-.197-.619-.272-1.245-.251-1.859-3.153-16.843-2.934-28.478-1.78-36.11-.628-.465-1.17-1.067-1.565-1.8-.095-.172-4.388-7.841-13.776-14.26-12.547-8.578-27.961-11.05-45.813-7.344-32.154,6.673-42.703,20.664-46.011,27.457,1.617.571,3.297,1.268,4.98,2.14,7.856,4.071,17.134,12.476,16.73,29.394-.072,2.992-2.52,5.369-5.496,5.369-.044,0-.089,0-.134-.001-3.037-.073-5.44-2.593-5.367-5.63.503-21.043-20.358-22.583-22.738-22.689-.941-.042-1.817-.319-2.574-.77-11.962.025-36.793,3.736-52.55,31.616-20.337,35.981-2.172,51.202-1.389,51.832.421.324.775.706,1.076,1.119.086.06.179.101.262.166,16.543,13.019,30.278-2.756,31.791-4.598,1.922-2.342,5.384-2.696,7.731-.783,2.349,1.913,2.715,5.357.81,7.713-.215.267-5.377,6.582-13.58,10.542-3.72,1.796-8.384,3.275-13.651,3.275-6.007,0-12.799-1.922-19.88-7.487-5.218.497-19.889,3.012-32.299,15.924-13.845,14.404-20.897,36.892-21.021,66.929,13.731-7.303,31.163-9.711,52.042-7.158.555.068,1.08.218,1.566.433,3.848-5.378,10.078-10.182,20.155-12.187,2.98-.591,5.874,1.342,6.467,4.321.593,2.979-1.342,5.875-4.321,6.467-21.173,4.213-17.348,26.193-17.175,27.127.554,2.986-1.418,5.856-4.405,6.411-.339.063-.676.093-1.009.093-2.599,0-4.91-1.85-5.401-4.498-.062-.337-1.506-8.365.816-17.172.024-.091.051-.184.076-.275-20.842-2.247-37.413,1.033-49.376,9.766-.505.848-1.233,1.564-2.14,2.046-.453.241-.903.502-1.349.775-.256.228-.525.441-.776.675-.548.511-1.173.883-1.834,1.129-13.837,10.62-23.874,35.949-25.913,56.432-1.488,14.94-.626,42.758,21.861,61.197.351.288.645.622.908.974,10.889,5.176,19.645,6.164,26.045,2.921,9.239-4.684,11.254-17.171,11.273-17.296.459-2.994,3.256-5.067,6.25-4.617,2.996.447,5.068,3.222,4.632,6.22-.107.736-2.786,18.134-17.085,25.455-4.044,2.07-8.523,3.104-13.413,3.104-5.728,0-12.022-1.422-18.844-4.256-4.16,18.051-1.825,47.282,9.186,67.123,5.031,9.065,11.221,15.164,18.45,18.226,1.044-7.009,3.468-17.419,9.113-28.142,8.269-15.71,25.068-34.746,58.682-40.47-7.514-6.869-14.139-16.131-17.95-28.61-.887-2.905.749-5.979,3.654-6.867,2.905-.886,5.979.749,6.866,3.654,10.909,35.728,51.033,40.191,51.437,40.232,3.022.306,5.224,3.004,4.918,6.025-.287,2.834-2.677,4.946-5.465,4.946-.186,0-.373-.009-.561-.028-1.067-.108-15.321-1.695-30.134-10.121-.553.247-1.153.411-1.79.464-28.282,2.323-48.376,14.275-59.725,35.525-7.308,13.683-8.573,27.128-8.789,31.013-.004.047.003.093-.002.141-.004.04-.008.078-.012.118-.026.535-.031.838-.031.859-.003.485-.075.952-.196,1.399-3.305,33.817,1.303,57.394,14.075,72.017,9.004,10.309,22.576,16.366,40.395,18.065-1.364-5.498-1.792-12.065.788-18.391,3.782-9.276,12.825-15.552,26.876-18.653,2.962-.655,5.901,1.22,6.556,4.185.655,2.967-1.219,5.901-4.185,6.557-10.29,2.271-16.697,6.317-19.046,12.027-3.863,9.395,3.709,21.3,3.786,21.419.265.411.447.848.592,1.292,15.22,21.092,42.666,31.769,71.769,27.409,14.068-2.107,26.868-7.658,37.017-16.054,11.085-9.169,18.393-21.069,21.721-35.372.071-.304.166-.598.284-.879.495-1.56,6.055-19.988,1.576-37.414-5.109-19.883,3.048-34.42,6.969-41.406.109-.194.224-.398.338-.603-3.321-4.662-6.078-12.165-7.77-21.329-.161-.871-.282-1.756-.419-2.635ZM222.009,373.644c-.464,2.675-2.778,4.563-5.403,4.563-.305,0-.613-.025-.924-.078-.338-.058-8.373-1.464-15.843-6.675-7.257-5.061-15.359-14.605-12.749-31.327.468-3,3.282-5.054,6.282-4.586,3.001.469,5.055,3.281,4.586,6.282-3.246,20.799,17.236,25.048,19.582,25.464,2.983.528,4.987,3.372,4.47,6.356ZM150.981,166.988c.199-.28,4.957-6.904,12.897-11.368,7.712-4.335,19.83-7.485,33.754,2.133,2.5,1.726,3.126,5.152,1.4,7.651-1.727,2.499-5.152,3.126-7.651,1.4-17.324-11.964-30.05,4.637-31.443,6.569-1.077,1.492-2.765,2.288-4.477,2.288-1.107,0-2.224-.333-3.191-1.025-2.463-1.763-3.043-5.178-1.289-7.647ZM165.762,315.248c-.924,2.894-4.018,4.49-6.913,3.566-20.562-6.563-27.863,14.516-28.163,15.417-.769,2.304-2.915,3.761-5.216,3.761-.578,0-1.164-.092-1.742-.285-2.881-.961-4.437-4.076-3.476-6.958.109-.325,2.733-8.048,9.031-14.629,1.151-1.203,2.465-2.412,3.945-3.547-13.06-19.872-27.984-31.19-44.361-33.631-20.9-3.113-37.817,9.191-40.444,11.225-2.462,5.058-6.758,10.021-13.966,14.024-.846.47-1.762.692-2.666.692-1.933,0-3.808-1.02-4.813-2.83-1.475-2.656-.518-6.004,2.138-7.479,18.872-10.481,8.512-30.241,8.062-31.077-1.44-2.674-.44-6.01,2.234-7.45,2.675-1.44,6.01-.44,7.45,2.234.163.302,3.991,7.504,4.471,16.6.008.158.013.32.02.48,8.935-4.684,22.927-9.716,39.134-7.299,19.662,2.93,37.177,15.936,52.059,38.655.183.28.326.573.452.87,5.26-1.511,11.628-1.67,19.197.747,2.894.924,4.49,4.018,3.566,6.912ZM149.394,238.85c-2.996.47-5.812-1.579-6.286-4.576-.473-2.997,1.566-5.81,4.562-6.288.604-.098,15.015-2.319,31.14,1.758,20.477,5.178,34.443,18.093,40.653,37.465,1.335-1.032,2.801-2.03,4.429-2.978,2.626-1.529,5.992-.641,7.521,1.982,1.529,2.624.642,5.992-1.982,7.521-18.186,10.599-8.565,29.173-7.408,31.256,1.471,2.648.528,5.997-2.114,7.478-.853.478-1.778.706-2.69.706-1.914,0-3.771-1.001-4.781-2.787-.169-.299-4.145-7.42-4.813-16.504-.374-5.088.236-11.334,3.619-17.345-.553-.635-.976-1.399-1.193-2.272-10.619-42.715-58.618-35.735-60.656-35.417ZM208.894,537.254c-.45,2.688-2.78,4.594-5.418,4.594-.302,0-.607-.025-.914-.076-2.996-.501-5.018-3.336-4.517-6.332,6.574-39.306-41.028-61.285-51.685-65.681-3.712,5.825-10.016,11.186-20.697,13.438-.382.08-.765.119-1.14.119-2.545,0-4.83-1.776-5.376-4.366-.626-2.973,1.275-5.89,4.247-6.517,20.597-4.343,17.304-24.999,16.86-27.34-.563-2.976,1.384-5.859,4.358-6.434,2.976-.573,5.852,1.352,6.438,4.325.065.329,1.525,8.001-.489,16.601,5.378,2.203,18.293,8.037,30.706,17.749,21.781,17.042,31.334,37.762,27.629,59.92Z"/>
      <path d="M265.218,527.239c-.381.016-.744.07-1.089.154.352-.086.716-.139,1.089-.154Z"/>
      <path d="M261.22,529.205c-.313.371-.563.766-.745,1.159.201-.42.452-.809.745-1.159Z"/>
    </g>
  </g>
</svg>