<?xml version="1.0" encoding="UTF-8"?>
<svg id="b" data-name="Layer 2" xmlns="http://www.w3.org/2000/svg" viewBox="0 0 940.984 1008.631">
  <g id="c" data-name="ëÎÓÈ 3">
    <g>
      <path d="M692.419,882.502s43.185,18.596,25.452,60.327" fill="none" stroke="#fff" stroke-linecap="round" stroke-linejoin="round" stroke-width="18.314"/>
      <path d="M464.726,225.94c.016-25.591,18.62-72.455,13.702-93.794-15.057-65.332-.724-86.99-.724-86.99,0,0,24.569-48.999,103.264-32.666,78.695,16.333,86.119,62.362,86.119,62.362,0,0,69.786-14.848,108.391,53.453,38.605,68.301,0,97.997,0,97.997,0,0,108.391-1.485,100.967,164.813,47.514,25.242,89.088,154.42,14.848,215.297,17.817,46.029,2.97,155.904-59.392,167.783,8.909,83.149-5.939,161.844-111.36,164.813-53.453,92.058-216.921,72.756-242.835-38.605-.118.26-7.25-8.043-11.326-53.663" fill="none" stroke="#fff" stroke-linecap="round" stroke-linejoin="round" stroke-width="18.314"/>
      <path d="M469.145,53.075s-30.433-56.917-109.128-40.585c-78.695,16.333-86.119,59.392-86.119,59.392,0,0-69.786-11.878-108.391,56.423-38.605,68.301,0,97.997,0,97.997,0,0-108.391-1.485-100.967,164.813-47.514,25.242-89.088,154.42-14.848,215.297-17.818,46.029-2.97,155.904,59.392,167.783-8.909,83.149,5.939,161.844,111.36,164.813,53.453,92.058,213.893,77.588,239.808-33.772.118.26,11.55-35.022,3.048-68.108-10.489-40.817,16.817-66.775,13.593-69.69-10.903-9.854-22.476-52.495-13.688-94.114,5.293-25.067-6.434-48.106.365-77.803,9.053-39.543-12.387-69.6-21.152-110.827-15.643-73.575,20.561-117.746,21.059-132.679,1.267-38.028-7.675-71.004-7.695-104.927" fill="none" stroke="#fff" stroke-linecap="round" stroke-linejoin="round" stroke-width="18.314"/>
      <path d="M841.021,469.262s27.806-20.482,34.286-73.145" fill="none" stroke="#fff" stroke-linecap="round" stroke-linejoin="round" stroke-width="18.314"/>
      <path d="M733.441,534.919s11.897,46.251-31.914,58.129" fill="none" stroke="#fff" stroke-linecap="round" stroke-linejoin="round" stroke-width="18.314"/>
      <path d="M88.291,452.651s22.645,42.046-17.038,64.087" fill="none" stroke="#fff" stroke-linecap="round" stroke-linejoin="round" stroke-width="18.314"/>
      <path d="M630.808,258.631s46.269-11.827,58.081,32.002" fill="none" stroke="#fff" stroke-linecap="round" stroke-linejoin="round" stroke-width="18.314"/>
      <path d="M553.853,474.683s9.725-78.431,84.388-70.156" fill="none" stroke="#fff" stroke-linecap="round" stroke-linejoin="round" stroke-width="18.314"/>
      <path d="M277.162,301.619s27.648-38.939,64.998-13.142" fill="none" stroke="#fff" stroke-linecap="round" stroke-linejoin="round" stroke-width="18.314"/>
      <path d="M379.983,530.553s-23.508-41.57,15.711-64.426" fill="none" stroke="#fff" stroke-linecap="round" stroke-linejoin="round" stroke-width="18.314"/>
      <path d="M455.782,247.089s22.646-67.311,98.608-17.937" fill="none" stroke="#fff" stroke-linecap="round" stroke-linejoin="round" stroke-width="18.314"/>
      <path d="M379.628,167.063s56.071-15.501,76.666,97.381" fill="none" stroke="#fff" stroke-linecap="round" stroke-linejoin="round" stroke-width="18.314"/>
      <path d="M680.442,682.588s107.936-28.662,149.331,86.799" fill="none" stroke="#fff" stroke-linecap="round" stroke-linejoin="round" stroke-width="18.314"/>
      <path d="M108.961,776.751s.304-111.676,122.55-121.719" fill="none" stroke="#fff" stroke-linecap="round" stroke-linejoin="round" stroke-width="18.314"/>
      <path d="M598.964,621.823s60.885,0,75.565,62.264" fill="none" stroke="#fff" stroke-linecap="round" stroke-linejoin="round" stroke-width="18.314"/>
      <path d="M286.333,671.127s-73.32-7.426-93.47-73.417" fill="none" stroke="#fff" stroke-linecap="round" stroke-linejoin="round" stroke-width="18.314"/>
      <path d="M477.703,900.403c-3.249-25.349.724-63.275,60.814-46.001" fill="none" stroke="#fff" stroke-linecap="round" stroke-linejoin="round" stroke-width="18.314"/>
      <path d="M225.394,945.984s-35.864-54.835,31.111-69.617" fill="none" stroke="#fff" stroke-linecap="round" stroke-linejoin="round" stroke-width="18.314"/>
      <path d="M463.241,673.325s-8.676,89.429-83.451,84.024" fill="none" stroke="#fff" stroke-linecap="round" stroke-linejoin="round" stroke-width="18.314"/>
      <path d="M596.047,99.273s42.085,22.573,21.15,62.85" fill="none" stroke="#fff" stroke-linecap="round" stroke-linejoin="round" stroke-width="18.314"/>
      <path d="M402.618,129.195s-6.853,47.262-51.857,41.332" fill="none" stroke="#fff" stroke-linecap="round" stroke-linejoin="round" stroke-width="18.314"/>
      <path d="M538.228,145.764s-48.66,18.348-62.429-24.906" fill="none" stroke="#fff" stroke-linecap="round" stroke-linejoin="round" stroke-width="18.314"/>
      <path d="M664.526,69.957s3.845,47.602-41.349,51.843" fill="none" stroke="#fff" stroke-linecap="round" stroke-linejoin="round" stroke-width="18.314"/>
      <path d="M265.626,72.307s47.724,1.762,46.638,47.142" fill="none" stroke="#fff" stroke-linecap="round" stroke-linejoin="round" stroke-width="18.314"/>
      <path d="M233.422,219.371s-30.019,37.142-65.69,9.069" fill="none" stroke="#fff" stroke-linecap="round" stroke-linejoin="round" stroke-width="18.314"/>
      <path d="M545.834,704.108s41.542,23.556,19.666,63.33" fill="none" stroke="#fff" stroke-linecap="round" stroke-linejoin="round" stroke-width="18.314"/>
      <path d="M353.76,725.919s41.543,23.556,19.667,63.33" fill="none" stroke="#fff" stroke-linecap="round" stroke-linejoin="round" stroke-width="18.314"/>
      <path d="M598.381,578.2s9.245,46.853-35.171,56.218" fill="none" stroke="#fff" stroke-linecap="round" stroke-linejoin="round" stroke-width="18.314"/>
      <path d="M378.943,638.811s-47.086-7.976-40.086-52.827" fill="none" stroke="#fff" stroke-linecap="round" stroke-linejoin="round" stroke-width="18.314"/>
      <path d="M260.825,757.584s9.245,46.853-35.171,56.218" fill="none" stroke="#fff" stroke-linecap="round" stroke-linejoin="round" stroke-width="18.314"/>
      <path d="M741.309,389.129s-3.053-47.659,42.205-51.149" fill="none" stroke="#fff" stroke-linecap="round" stroke-linejoin="round" stroke-width="18.314"/>
      <path d="M162.122,406.914s-8.71-46.955,35.81-55.813" fill="none" stroke="#fff" stroke-linecap="round" stroke-linejoin="round" stroke-width="18.314"/>
      <path d="M227.222,571.855s15.118-45.301,58.36-31.491" fill="none" stroke="#fff" stroke-linecap="round" stroke-linejoin="round" stroke-width="18.314"/>
      <path d="M537.932,888.535s-3.345-47.639,41.891-51.406" fill="none" stroke="#fff" stroke-linecap="round" stroke-linejoin="round" stroke-width="18.314"/>
      <path d="M629.376,939.928s-40.188-25.8-16.163-64.314" fill="none" stroke="#fff" stroke-linecap="round" stroke-linejoin="round" stroke-width="18.314"/>
      <path d="M575.768,739.898s115.067-14.238,139.719,64.772" fill="none" stroke="#fff" stroke-linecap="round" stroke-linejoin="round" stroke-width="18.314"/>
      <path d="M261.624,790.401s109.111,39.216,95.458,120.849" fill="none" stroke="#fff" stroke-linecap="round" stroke-linejoin="round" stroke-width="18.314"/>
      <path d="M806.151,455.454s47.291,6.652,41.552,51.681" fill="none" stroke="#fff" stroke-linecap="round" stroke-linejoin="round" stroke-width="18.314"/>
      <path d="M707.282,835.16s10.06-46.685,54.554-37.7" fill="none" stroke="#fff" stroke-linecap="round" stroke-linejoin="round" stroke-width="18.314"/>
      <path d="M891.291,606.412s-78.931,75.725-157.862-28.211" fill="none" stroke="#fff" stroke-linecap="round" stroke-linejoin="round" stroke-width="18.314"/>
      <path d="M702.107,447.003s-63.17,50.921-126.34-18.97" fill="none" stroke="#fff" stroke-linecap="round" stroke-linejoin="round" stroke-width="18.314"/>
      <path d="M92.478,494.843s84.007-70.051,155.517,39.125" fill="none" stroke="#fff" stroke-linecap="round" stroke-linejoin="round" stroke-width="18.314"/>
      <path d="M128.196,578.372s-9.465,65.16-79.841,28.509" fill="none" stroke="#fff" stroke-linecap="round" stroke-linejoin="round" stroke-width="18.314"/>
      <path d="M673.616,261.558c16.787-19.808,45.928-35.865,96.323-35.615" fill="none" stroke="#fff" stroke-linecap="round" stroke-linejoin="round" stroke-width="18.314"/>
      <path d="M59.052,394.922c18.982-17.716,49.796-30.266,99.818-24.144" fill="none" stroke="#fff" stroke-linecap="round" stroke-linejoin="round" stroke-width="18.314"/>
      <path d="M463.477,357.956s22.001-33.657,57.141-19.976" fill="none" stroke="#fff" stroke-linecap="round" stroke-linejoin="round" stroke-width="18.314"/>
      <path d="M265.626,406.914s91.319-14.566,111.298,65.801" fill="none" stroke="#fff" stroke-linecap="round" stroke-linejoin="round" stroke-width="18.314"/>
    </g>
  </g>
</svg>