<?xml version="1.0" encoding="UTF-8"?>
<svg id="b" data-name="Layer 2" xmlns="http://www.w3.org/2000/svg" viewBox="0 0 1055.988 976.163">
  <g id="c" data-name="ëÎÓÈ 3">
    <g>
      <path d="M866.607,578.777c-10.901,19.076-85.841,55.865-136.255,8.175-8.175,9.538-102.191,31.339-152.605,0-29.976,43.602-84.478,46.327-133.53,42.239-39.514,55.864-141.705,39.514-179.856,21.801-57.227,0-88.566-118.542-13.626-158.056,58.59-132.167,185.307-66.765,185.307-66.765,0,0,116.682-89.055,230.109-49.202" fill="none" stroke="#fff" stroke-linecap="round" stroke-linejoin="round" stroke-width="18.314"/>
      <path d="M280.712,663.255s94.016,76.303,231.633,5.45c0,0,94.016,13.626,152.605-6.813,43.601,17.713,182.581,38.151,215.282,14.988,27.251,27.251,113.092,21.801,133.53-38.151,21.801-16.351,64.04-87.203-4.088-166.231,1.362-65.402-8.857-100.828-90.61-130.804,0,0-12.944-90.609-90.609-66.083" fill="none" stroke="#fff" stroke-linecap="round" stroke-linejoin="round" stroke-width="18.314"/>
      <path d="M95.953,208.363c-63.87,6.729-110.294,93.137-74.125,161.944-10.9,17.713-27.251,58.59,19.076,83.115-17.713,46.327,39.514,129.442,156.693,111.729" fill="none" stroke="#fff" stroke-linecap="round" stroke-linejoin="round" stroke-width="18.314"/>
      <path d="M73.604,202.714c19.076-76.303,84.478-81.753,84.478-81.753,0,0,42.1-53.615,106.477-72.008,64.377-18.394,89.729,5.244,89.729,5.244,19.076-24.526,159.418-79.028,238.446-14.988,158.056-21.801,284.773,81.072,286.135,145.793,35.426-9.538,107.641,50.414,79.028,107.641,72.215,25.888,58.59,92.653,72.215,110.366,27.251,76.303,4.088,96.741,4.088,96.741" fill="none" stroke="#fff" stroke-linecap="round" stroke-linejoin="round" stroke-width="18.314"/>
      <path d="M308.417,537.234s55.855,17.814,39.613,71.12" fill="none" stroke="#fff" stroke-linecap="round" stroke-linejoin="round" stroke-width="18.314"/>
      <path d="M828.082,435.702s60.573-27.521,110.377,33.199" fill="none" stroke="#fff" stroke-linecap="round" stroke-linejoin="round" stroke-width="18.314"/>
      <path d="M511.976,532.766s51.909-74.095,134.685-56.12" fill="none" stroke="#fff" stroke-linecap="round" stroke-linejoin="round" stroke-width="18.314"/>
      <path d="M809.296,363.353s44.165,38.556,8.065,81.007c0,0-66.571,31.545-52.264,72.422" fill="none" stroke="#fff" stroke-linecap="round" stroke-linejoin="round" stroke-width="18.314"/>
      <path d="M938.459,468.9s65.527-14.1,94.379,33.574" fill="none" stroke="#fff" stroke-linecap="round" stroke-linejoin="round" stroke-width="18.314"/>
      <path d="M905.266,594.626s-57.803-9.792-49.21-64.851" fill="none" stroke="#fff" stroke-linecap="round" stroke-linejoin="round" stroke-width="18.314"/>
      <path d="M495.313,85.535s35.368-39.801,90.915-44.26" fill="none" stroke="#fff" stroke-linecap="round" stroke-linejoin="round" stroke-width="18.314"/>
      <path d="M352.573,567.697s47.756-92.869,156.204-35.857" fill="none" stroke="#fff" stroke-linecap="round" stroke-linejoin="round" stroke-width="18.314"/>
      <path d="M399.253,202.033s-38.833,63.358,40.876,87.884" fill="none" stroke="#fff" stroke-linecap="round" stroke-linejoin="round" stroke-width="18.314"/>
      <path d="M148.068,251.281s-104.439-6.328-126.24,119.026" fill="none" stroke="#fff" stroke-linecap="round" stroke-linejoin="round" stroke-width="18.314"/>
      <path d="M380.859,249.041c-6.131,0-98.103-47.008-147.155,65.402" fill="none" stroke="#fff" stroke-linecap="round" stroke-linejoin="round" stroke-width="18.314"/>
      <path d="M158.082,404.371s3.406,103.554,92.653,88.565" fill="none" stroke="#fff" stroke-linecap="round" stroke-linejoin="round" stroke-width="18.314"/>
      <path d="M98.811,392.108c6.131,0,65.402,36.789,98.103-22.482" fill="none" stroke="#fff" stroke-linecap="round" stroke-linejoin="round" stroke-width="18.314"/>
      <path d="M429.911,367.582s18.394,18.394,8.175,47.008" fill="none" stroke="#fff" stroke-linecap="round" stroke-linejoin="round" stroke-width="18.314"/>
      <path d="M358.377,138.674c58.902-53.547-4.088-84.478-4.088-84.478" fill="none" stroke="#fff" stroke-linecap="round" stroke-linejoin="round" stroke-width="18.314"/>
      <path d="M164.214,185.682c-6.131,2.044-26.57,57.227,6.131,83.797" fill="none" stroke="#fff" stroke-linecap="round" stroke-linejoin="round" stroke-width="18.314"/>
      <path d="M697.651,316.487s-53.139,65.402,6.131,108.323" fill="none" stroke="#fff" stroke-linecap="round" stroke-linejoin="round" stroke-width="18.314"/>
      <path d="M748.747,144.806c-118.542-59.271-179.856,63.358-179.856,63.358" fill="none" stroke="#fff" stroke-linecap="round" stroke-linejoin="round" stroke-width="18.314"/>
      <path d="M517.795,177.507s67.446,16.35,63.359,89.928" fill="none" stroke="#fff" stroke-linecap="round" stroke-linejoin="round" stroke-width="18.314"/>
      <path d="M791.667,212.252c36.789,16.351,53.139,53.139,8.175,85.84" fill="none" stroke="#fff" stroke-linecap="round" stroke-linejoin="round" stroke-width="18.314"/>
      <path d="M878.87,185.001s-60.633-105.598-158.737-15.669" fill="none" stroke="#fff" stroke-linecap="round" stroke-linejoin="round" stroke-width="18.314"/>
      <path d="M572.978,778.391c-73.578,4.088-102.191-81.753-102.191-87.884" fill="none" stroke="#fff" stroke-linecap="round" stroke-linejoin="round" stroke-width="18.314"/>
      <path d="M538.233,676.199s4.088,51.096,38.833,67.446c-4.088,24.526,32.701,120.585,153.287,89.928,55.183,24.526,183.944-8.175,177.812-143.067" fill="none" stroke="#fff" stroke-linecap="round" stroke-linejoin="round" stroke-width="18.314"/>
      <path d="M534.146,774.303c12.263,16.351,79.709,128.761,91.972,165.549,12.263,36.789,73.578,38.833,53.139-10.219-20.438-49.052-22.482-87.884-22.482-87.884" fill="none" stroke="#fff" stroke-linecap="round" stroke-linejoin="round" stroke-width="18.314"/>
      <path d="M711.958,745.689c-63.358-4.088-73.578,24.526-134.892-2.044" fill="none" stroke="#fff" stroke-linecap="round" stroke-linejoin="round" stroke-width="18.314"/>
    </g>
  </g>
</svg>